<?xml version="1.0" encoding="UTF-8"?><svg xmlns="http://www.w3.org/2000/svg" viewBox="0 0 348.7981 370.6267"><g id="a"/><g id="b"><g id="c"><g id="d"><path d="M65.1495,370.6267c-8.859-84.5529,44.468-136.1219,44.468-136.1219,0,0,24.7082-.6331,37.31,.6612,0,0-65.8125,14.7456-81.3991,135.4607" style="fill:#f68921;"/><path d="M123.8461,171.5986S208.1873,48.6127,282.1666,57.1939c5.6111,.6509,10.9116,2.9032,15.5469,6.1317,11.5752,8.0621,37.1658,24.9889,51.0553,27.2526,.4473,.0729-4.2668-.0263-11.0718,1.1081-15.611,2.6024-66.7184,14.1061-143.4106,76.7428-54.6119,44.6031-70.4404,3.1695-70.4404,3.1695Z" style="fill:#f68921;"/><path d="M65.5284,370.6267c.089-.1757,.178-.351,.267-.526,4.2009-8.2543,15.7725-21.6859,29.2459-35.8461,27.9432-29.3678,61.2039-53.442,98.4334-69.4813,8.097-3.4884,15.6325-7.1093,23.3235-11.8602,0,0-16.7226-13.7809-71.0555-18.4354-25.9962,6.4491-47.6266,38.2244-56.1997,54.1092-20.1528,37.3403-24.0146,82.0398-24.0146,82.0398" style="fill:#fcb316;"/><path d="M348.7981,90.5772c-9.0138-.3302-31.3243-1.3026-41.6341-3.802-13.0743-3.1695-66.6349-18.2203-101.2643,46.9509-34.1855,64.336,16.7417,32.4297,18.0528,31.6012l.0551-.0176c1.2862-.0579,44.516-2.1973,70.8181-29.2722,.0584-.0601,.0905-.1301,.0854-.2137-.1477-2.45-1.7049-42.4383,53.7934-45.0036l.0936-.2431Z" style="fill:#328fce;"/><path d="M216.7982,252.9131c35.397-25.8468,73.2793-65.1718,78.1127-116.9467l-.003-.1983s-.0129,.1596-.056,.2003c-1.5746,1.4857-32.004,29.3758-100.5654,32.4608l-70.4404,3.1695s-10.8335,14.8549-22.0047,36.2174l76.0046,10.6482,38.9522,34.4489Z" style="fill:#16ace3;"/><path d="M.4671,74.5094S-14.089,237.8738,119.3138,234.8851c18.1201-.4059,36.2563,.5991,54.0695,3.9451,16.3429,3.0698,34.6571,8.3967,43.4149,14.0829,0,0,5.7106-92.2208-85.9059-112.4488C39.2759,120.2363,.4671,74.5094,.4671,74.5094Z" style="fill:#328fce;"/><path d="M95.673,0S13.4399,141.9067,135.607,195.5765c16.594,7.29,32.6062,15.8656,47.3363,26.4262,13.5143,9.689,28.3207,22.0557,33.8549,30.9104,0,0,43.6905-80.966-30.7935-138.0176C111.5207,57.844,95.673,0,95.673,0Z" style="fill:#0066a2;"/></g></g></g></svg>